<?xml version="1.0" encoding="utf-8"?>
<!-- Generator: Adobe Illustrator 27.5.0, SVG Export Plug-In . SVG Version: 6.00 Build 0)  -->
<svg version="1.1" xmlns="http://www.w3.org/2000/svg" xmlns:xlink="http://www.w3.org/1999/xlink" x="0px" y="0px"
	 viewBox="0 0 500 500" style="enable-background:new 0 0 500 500;" xml:space="preserve">
<g id="Background_Complete">
	<g>
		<rect y="382.398" style="fill:#EBEBEB;" width="500" height="0.25"/>
		<rect x="416.779" y="398.494" style="fill:#EBEBEB;" width="33.122" height="0.25"/>
		<rect x="322.527" y="401.208" style="fill:#EBEBEB;" width="8.693" height="0.25"/>
		<rect x="396.586" y="389.208" style="fill:#EBEBEB;" width="19.192" height="0.25"/>
		<rect x="52.459" y="390.888" style="fill:#EBEBEB;" width="43.193" height="0.25"/>
		<rect x="104.556" y="390.888" style="fill:#EBEBEB;" width="6.333" height="0.25"/>
		<rect x="131.471" y="395.111" style="fill:#EBEBEB;" width="93.676" height="0.25"/>
		<path style="fill:#EBEBEB;" d="M237.014,337.8H43.915c-3.147,0-5.708-2.561-5.708-5.708V60.66c0-3.147,2.561-5.708,5.708-5.708
			h193.099c3.146,0,5.707,2.561,5.707,5.708v271.432C242.721,335.239,240.16,337.8,237.014,337.8z M43.915,55.203
			c-3.01,0-5.458,2.448-5.458,5.458v271.432c0,3.01,2.448,5.458,5.458,5.458h193.099c3.009,0,5.457-2.448,5.457-5.458V60.66
			c0-3.009-2.448-5.458-5.457-5.458H43.915z"/>
		<path style="fill:#EBEBEB;" d="M453.31,337.8H260.212c-3.147,0-5.707-2.561-5.707-5.708V60.66c0-3.147,2.561-5.708,5.707-5.708
			H453.31c3.148,0,5.708,2.561,5.708,5.708v271.432C459.019,335.239,456.458,337.8,453.31,337.8z M260.212,55.203
			c-3.009,0-5.457,2.448-5.457,5.458v271.432c0,3.01,2.448,5.458,5.457,5.458H453.31c3.01,0,5.458-2.448,5.458-5.458V60.66
			c0-3.009-2.448-5.458-5.458-5.458H260.212z"/>
	</g>
	<g>
		<g>
			
				<rect x="269.037" y="159.314" transform="matrix(-1 -1.224647e-16 1.224647e-16 -1 714.3633 541.862)" style="fill:#F0F0F0;" width="176.289" height="223.233"/>
			<g>
				
					<rect x="275.268" y="167.451" transform="matrix(-1 -1.224647e-16 1.224647e-16 -1 714.3634 382.6364)" style="fill:#E0E0E0;" width="163.826" height="47.735"/>
				
					<rect x="429.789" y="175.178" transform="matrix(-1 -1.224647e-16 1.224647e-16 -1 868.8834 390.3642)" style="fill:#EBEBEB;" width="9.306" height="40.008"/>
				
					<rect x="384.789" y="175.178" transform="matrix(-1 -1.224647e-16 1.224647e-16 -1 778.8834 390.3642)" style="fill:#EBEBEB;" width="9.306" height="40.008"/>
				
					<rect x="330.237" y="174.679" transform="matrix(-0.9855 -0.1698 0.1698 -0.9855 631.8507 443.4142)" style="fill:#EBEBEB;" width="9.306" height="40.008"/>
				
					<rect x="418.257" y="180.451" transform="matrix(-1 -1.224647e-16 1.224647e-16 -1 845.8204 395.6364)" style="fill:#EBEBEB;" width="9.306" height="34.735"/>
				
					<rect x="396.866" y="180.451" transform="matrix(-1 -1.224647e-16 1.224647e-16 -1 803.0388 395.6364)" style="fill:#EBEBEB;" width="9.306" height="34.735"/>
				
					<rect x="342.874" y="180.451" transform="matrix(-1 -1.224647e-16 1.224647e-16 -1 695.0534 395.6364)" style="fill:#EBEBEB;" width="9.306" height="34.735"/>
				
					<rect x="368.687" y="179.855" transform="matrix(-0.9762 -0.2169 0.2169 -0.9762 695.0139 470.7281)" style="fill:#EBEBEB;" width="9.306" height="34.735"/>
				
					<rect x="410.21" y="173.192" transform="matrix(-1 -1.224647e-16 1.224647e-16 -1 825.0726 388.3779)" style="fill:#EBEBEB;" width="4.653" height="41.994"/>
				
					<rect x="354.855" y="173.192" transform="matrix(-1 -1.224647e-16 1.224647e-16 -1 714.3634 388.3779)" style="fill:#EBEBEB;" width="4.653" height="41.994"/>
			</g>
			<g>
				<rect x="275.268" y="222.745" style="fill:#E0E0E0;" width="163.826" height="47.735"/>
				<rect x="275.268" y="230.472" style="fill:#EBEBEB;" width="9.306" height="40.008"/>
				<rect x="320.268" y="230.472" style="fill:#EBEBEB;" width="9.306" height="40.008"/>
				
					<rect x="374.82" y="229.973" transform="matrix(0.9855 -0.1698 0.1698 0.9855 -36.9429 68.0814)" style="fill:#EBEBEB;" width="9.306" height="40.008"/>
				<rect x="286.8" y="235.745" style="fill:#EBEBEB;" width="9.306" height="34.735"/>
				<rect x="308.191" y="235.745" style="fill:#EBEBEB;" width="9.307" height="34.735"/>
				<rect x="362.183" y="235.745" style="fill:#EBEBEB;" width="9.306" height="34.735"/>
				
					<rect x="336.37" y="235.149" transform="matrix(0.9762 -0.2169 0.2169 0.9762 -46.6529 79.9806)" style="fill:#EBEBEB;" width="9.306" height="34.735"/>
				<rect x="299.5" y="228.486" style="fill:#EBEBEB;" width="4.653" height="41.994"/>
				<rect x="354.855" y="228.486" style="fill:#EBEBEB;" width="4.653" height="41.994"/>
				
					<rect x="429.789" y="230.472" transform="matrix(-1 -1.224647e-16 1.224647e-16 -1 868.8834 500.9522)" style="fill:#EBEBEB;" width="9.306" height="40.008"/>
				
					<rect x="418.257" y="235.745" transform="matrix(-1 -1.224647e-16 1.224647e-16 -1 845.8204 506.2244)" style="fill:#EBEBEB;" width="9.306" height="34.735"/>
				
					<rect x="396.866" y="235.745" transform="matrix(-1 -1.224647e-16 1.224647e-16 -1 803.0388 506.2244)" style="fill:#EBEBEB;" width="9.306" height="34.735"/>
				
					<rect x="410.21" y="228.486" transform="matrix(-1 -1.224647e-16 1.224647e-16 -1 825.0726 498.9659)" style="fill:#EBEBEB;" width="4.653" height="41.994"/>
			</g>
			<g>
				
					<rect x="275.268" y="278.039" transform="matrix(-1 -1.224647e-16 1.224647e-16 -1 714.3634 603.8126)" style="fill:#E0E0E0;" width="163.826" height="47.735"/>
				<g>
					
						<rect x="335.758" y="285.766" transform="matrix(-1 -1.224647e-16 1.224647e-16 -1 680.8216 611.5404)" style="fill:#EBEBEB;" width="9.306" height="40.008"/>
					
						<rect x="281.206" y="285.267" transform="matrix(-0.9855 -0.1698 0.1698 -0.9855 515.719 654.6563)" style="fill:#EBEBEB;" width="9.306" height="40.008"/>
					
						<rect x="369.226" y="291.039" transform="matrix(-1 -1.224647e-16 1.224647e-16 -1 747.7587 616.8126)" style="fill:#EBEBEB;" width="9.307" height="34.735"/>
					
						<rect x="347.835" y="291.039" transform="matrix(-1 -1.224647e-16 1.224647e-16 -1 704.977 616.8126)" style="fill:#EBEBEB;" width="9.306" height="34.735"/>
					
						<rect x="293.843" y="291.039" transform="matrix(-1 -1.224647e-16 1.224647e-16 -1 596.9917 616.8126)" style="fill:#EBEBEB;" width="9.307" height="34.735"/>
					
						<rect x="319.656" y="290.443" transform="matrix(-0.9762 -0.2169 0.2169 -0.9762 574.1317 678.6371)" style="fill:#EBEBEB;" width="9.306" height="34.735"/>
					
						<rect x="361.179" y="283.78" transform="matrix(-1 -1.224647e-16 1.224647e-16 -1 727.0108 609.5541)" style="fill:#EBEBEB;" width="4.653" height="41.994"/>
					
						<rect x="305.824" y="283.78" transform="matrix(-1 -1.224647e-16 1.224647e-16 -1 616.3016 609.5541)" style="fill:#EBEBEB;" width="4.653" height="41.994"/>
					
						<rect x="388.274" y="285.267" transform="matrix(-0.9855 -0.1698 0.1698 -0.9855 728.2983 672.8406)" style="fill:#EBEBEB;" width="9.306" height="40.008"/>
					
						<rect x="400.91" y="291.039" transform="matrix(-1 -1.224647e-16 1.224647e-16 -1 811.1265 616.8126)" style="fill:#EBEBEB;" width="9.307" height="34.735"/>
					
						<rect x="426.723" y="290.443" transform="matrix(-0.9762 -0.2169 0.2169 -0.9762 785.7175 701.8607)" style="fill:#EBEBEB;" width="9.306" height="34.735"/>
					
						<rect x="412.892" y="283.78" transform="matrix(-1 -1.224647e-16 1.224647e-16 -1 830.4364 609.5541)" style="fill:#EBEBEB;" width="4.653" height="41.994"/>
				</g>
			</g>
			<path style="fill:#E0E0E0;" d="M418.257,159.314v-3.313h-5.365c0,0,5.365-14.071,1.971-31.455c0,0,0.077,13.732-5.233,13.829
				c-8.11,0.149-8.72-13.829-8.72-13.829s-1.954,20.006,5.323,31.455h-5.562v3.313H418.257z"/>
			<circle style="fill:#E0E0E0;" cx="407.855" cy="133.711" r="4.681"/>
			<path style="fill:#E0E0E0;" d="M382.258,159.314v-1.933l-5.67-2.637l2.835-2.769l-7.055-24.923v15.561c0,0,0.972,0,0.972,2.242
				c0,2.242-3.214,1.714-3.214-0.132c0-1.846,1.055-2.11,1.055-2.11v-16.22l-6.461,24.659l2.901,3.692l-5.802,2.637v1.933H382.258z"
				/>
			<polygon style="fill:#E0E0E0;" points="347.527,159.314 347.527,157.777 342.302,156.59 342.302,133.711 337.819,127.448 
				333.995,132.353 333.995,142.854 332.017,140.107 329.247,139.052 327.269,143.381 331.489,156.59 327.269,157.777 
				327.269,159.314 			"/>
			<polygon style="fill:#E0E0E0;" points="312.844,160.015 306.434,127.448 286.8,127.448 291.453,145.914 284.575,159.314 			"/>
		</g>
		<g>
			<rect x="53.305" y="111.493" style="fill:#E0E0E0;" width="130.438" height="6.702"/>
			<rect x="59.309" y="86.789" style="fill:#EBEBEB;" width="5.746" height="24.704"/>
			<rect x="87.095" y="86.789" style="fill:#EBEBEB;" width="5.747" height="24.704"/>
			
				<rect x="120.78" y="86.481" transform="matrix(0.9855 -0.1698 0.1698 0.9855 -14.9892 22.4371)" style="fill:#EBEBEB;" width="5.747" height="24.704"/>
			<rect x="66.429" y="90.045" style="fill:#EBEBEB;" width="5.747" height="21.448"/>
			<rect x="79.638" y="90.045" style="fill:#EBEBEB;" width="5.747" height="21.448"/>
			<rect x="112.977" y="90.045" style="fill:#EBEBEB;" width="5.747" height="21.448"/>
			
				<rect x="97.038" y="89.677" transform="matrix(0.9762 -0.2169 0.2169 0.9762 -19.3979 24.0601)" style="fill:#EBEBEB;" width="5.747" height="21.448"/>
			<rect x="74.272" y="85.563" style="fill:#EBEBEB;" width="2.873" height="25.93"/>
			<rect x="108.452" y="85.563" style="fill:#EBEBEB;" width="2.873" height="25.93"/>
			<rect x="143.227" y="91.94" style="fill:#EBEBEB;" width="28" height="19.331"/>
		</g>
		<g>
			
				<rect x="53.305" y="161.525" transform="matrix(-1 -1.224647e-16 1.224647e-16 -1 237.0485 329.7508)" style="fill:#E0E0E0;" width="130.438" height="6.702"/>
			
				<rect x="171.993" y="136.821" transform="matrix(-1 -1.224647e-16 1.224647e-16 -1 349.7328 298.3451)" style="fill:#EBEBEB;" width="5.747" height="24.704"/>
			
				<rect x="144.206" y="136.821" transform="matrix(-1 -1.224647e-16 1.224647e-16 -1 294.1595 298.3451)" style="fill:#EBEBEB;" width="5.747" height="24.704"/>
			
				<rect x="110.522" y="136.512" transform="matrix(-0.9855 -0.1698 0.1698 -0.9855 199.8599 314.8245)" style="fill:#EBEBEB;" width="5.746" height="24.704"/>
			
				<rect x="164.873" y="140.076" transform="matrix(-1 -1.224647e-16 1.224647e-16 -1 335.4918 301.6006)" style="fill:#EBEBEB;" width="5.746" height="21.448"/>
			
				<rect x="151.664" y="140.076" transform="matrix(-1 -1.224647e-16 1.224647e-16 -1 309.0751 301.6006)" style="fill:#EBEBEB;" width="5.747" height="21.448"/>
			
				<rect x="118.325" y="140.076" transform="matrix(-1 -1.224647e-16 1.224647e-16 -1 242.3961 301.6006)" style="fill:#EBEBEB;" width="5.747" height="21.448"/>
			
				<rect x="134.264" y="139.708" transform="matrix(-0.9762 -0.2169 0.2169 -0.9762 238.3822 327.0279)" style="fill:#EBEBEB;" width="5.747" height="21.449"/>
			
				<rect x="159.904" y="135.594" transform="matrix(-1 -1.224647e-16 1.224647e-16 -1 322.6804 297.1186)" style="fill:#EBEBEB;" width="2.873" height="25.93"/>
			
				<rect x="125.723" y="135.594" transform="matrix(-1 -1.224647e-16 1.224647e-16 -1 254.3196 297.1186)" style="fill:#EBEBEB;" width="2.873" height="25.93"/>
			
				<rect x="65.821" y="141.972" transform="matrix(-1 -1.224647e-16 1.224647e-16 -1 159.6424 303.2749)" style="fill:#EBEBEB;" width="28" height="19.331"/>
		</g>
		<g>
			<rect x="46.99" y="259.468" style="fill:#E0E0E0;" width="109.389" height="123.079"/>
			<rect x="52.421" y="264.373" style="fill:#EBEBEB;" width="98.527" height="19.817"/>
			<rect x="52.421" y="289.342" style="fill:#EBEBEB;" width="98.527" height="19.817"/>
			<rect x="52.421" y="314.312" style="fill:#EBEBEB;" width="98.527" height="59.1"/>
			<path style="fill:#E0E0E0;" d="M106.27,267.763h-9.171c-2.44,0-4.698-1.289-5.938-3.391l0,0h21.048l0,0
				C110.968,266.474,108.71,267.763,106.27,267.763z"/>
			<path style="fill:#E0E0E0;" d="M106.27,292.702h-9.171c-2.44,0-4.698-1.289-5.938-3.391l0,0h21.048l0,0
				C110.968,291.412,108.71,292.702,106.27,292.702z"/>
			<path style="fill:#E0E0E0;" d="M106.27,317.725h-9.171c-2.44,0-4.698-1.289-5.938-3.39l0,0h21.048l0,0
				C110.968,316.436,108.71,317.725,106.27,317.725z"/>
		</g>
	</g>
</g>
<g id="Background_Simple" style="display:none;">
	<g style="display:inline;">
		<path style="fill:#407BFF;" d="M125.864,190.872c-5.993-1.134-12.115-1.238-18.473,0.471
			c-31.709,8.521-31.984,48.658-22.845,73.861c14.808,40.836,49.26,73.49,90.021,88.501c40.761,15.011,87.082,12.829,127.311-3.555
			c40.229-16.383,74.327-46.423,97.947-82.877c26.334-40.643,50.31-99.616,21.787-145.173
			c-21.098-33.697-65.533-51.13-103.814-39.966c-7.86,2.292-15.359,5.767-22.176,10.304c-26.634,17.725-37.731,48.316-54.403,74.201
			c-11.382,17.672-28.121,35.465-49.472,39.918C168.282,211.451,148.016,195.063,125.864,190.872z"/>
		<path style="opacity:0.9;fill:#FFFFFF;" d="M125.864,190.872c-5.993-1.134-12.115-1.238-18.473,0.471
			c-31.709,8.521-31.984,48.658-22.845,73.861c14.808,40.836,49.26,73.49,90.021,88.501c40.761,15.011,87.082,12.829,127.311-3.555
			c40.229-16.383,74.327-46.423,97.947-82.877c26.334-40.643,50.31-99.616,21.787-145.173
			c-21.098-33.697-65.533-51.13-103.814-39.966c-7.86,2.292-15.359,5.767-22.176,10.304c-26.634,17.725-37.731,48.316-54.403,74.201
			c-11.382,17.672-28.121,35.465-49.472,39.918C168.282,211.451,148.016,195.063,125.864,190.872z"/>
	</g>
</g>
<g id="Shadow_1_">
	<ellipse id="_x3C_Path_x3E__359_" style="fill:#F5F5F5;" cx="250" cy="416.238" rx="193.889" ry="11.323"/>
</g>
<g id="Plant">
	<g>
		<g>
			<path style="fill:#407BFF;" d="M107.846,342.403c-0.21,1.47,3.776,2.438,7.028,2.98c-0.265,2.669-2.041,5.366-4.494,7.886
				c-3.085-1.738-7.49-4.036-8.302-3.475c-0.886,0.613,3.624,3.529,6.445,5.244c-1.984,1.761-4.218,3.402-6.389,4.84
				c-1.383-1.292-3.002-2.426-3.967-1.813c-1.001,0.637-0.73,2.636-0.236,4.42c-3.356,1.957-5.87,3.147-5.87,3.147
				s-1.409-4.271-2.242-9.53c0.169-0.334,0.337-0.672,0.492-1.029c0.541-1.251,0.014-1.783-0.879-1.959
				c-0.231-2.302-0.298-4.669-0.055-6.865c3.799-0.797,8.418-2.272,6.688-4.55c-1.044-1.374-2.954-1.529-4.942-1.185
				c0.278-0.458,0.585-0.89,0.938-1.278c6.914-7.618,11.737,0,11.737,0c4.018-3.348,9.662-2.442,10.882,2.79
				C112.424,341.447,108.105,340.587,107.846,342.403z"/>
			<path style="opacity:0.3;fill:#FFFFFF;enable-background:new    ;" d="M107.846,342.403c-0.21,1.47,3.776,2.438,7.028,2.98
				c-0.265,2.669-2.041,5.366-4.494,7.886c-3.085-1.738-7.49-4.036-8.302-3.475c-0.886,0.613,3.624,3.529,6.445,5.244
				c-1.984,1.761-4.218,3.402-6.389,4.84c-1.383-1.292-3.002-2.426-3.967-1.813c-1.001,0.637-0.73,2.636-0.236,4.42
				c-3.356,1.957-5.87,3.147-5.87,3.147s-1.409-4.271-2.242-9.53c0.169-0.334,0.337-0.672,0.492-1.029
				c0.541-1.251,0.014-1.783-0.879-1.959c-0.231-2.302-0.298-4.669-0.055-6.865c3.799-0.797,8.418-2.272,6.688-4.55
				c-1.044-1.374-2.954-1.529-4.942-1.185c0.278-0.458,0.585-0.89,0.938-1.278c6.914-7.618,11.737,0,11.737,0
				c4.018-3.348,9.662-2.442,10.882,2.79C112.424,341.447,108.105,340.587,107.846,342.403z"/>
		</g>
		<g>
			<g>
				<path style="fill:#407BFF;" d="M99.219,398.389l0.997-0.082c-0.043-0.515-4.094-51.525,7.354-56.334
					c1.229-0.517,2.365-0.488,3.47,0.087c4.136,2.151,6.119,11.082,6.138,11.173l0.978-0.213c-0.084-0.386-2.102-9.478-6.653-11.847
					c-1.367-0.711-2.82-0.752-4.32-0.122C95.072,346.138,99.044,396.258,99.219,398.389z"/>
			</g>
			<g>
				<path style="fill:#407BFF;" d="M97.776,397.284c0.203-2.295,4.876-56.267-3.862-61.997c-2.095-1.373-3.962-1.667-5.549-0.863
					c-4.129,2.082-4.671,10.91-4.692,11.284l0.998,0.057c0.005-0.086,0.529-8.626,4.145-10.449c1.244-0.625,2.775-0.356,4.55,0.808
					c8.242,5.405,3.463,60.517,3.414,61.073L97.776,397.284z"/>
			</g>
			<g>
				<path style="fill:#407BFF;" d="M96.463,401.647c0.065-1.757,1.504-43.071-6.452-46.688c-1.573-0.715-3.166-0.728-4.732-0.038
					c-5.46,2.402-8.831,12.577-8.973,13.009l0.951,0.311c0.033-0.102,3.374-10.183,8.425-12.404
					c1.313-0.576,2.595-0.567,3.915,0.033c6.101,2.773,6.304,33.958,5.867,45.74L96.463,401.647z"/>
			</g>
			<g>
				<path style="fill:#407BFF;" d="M98.488,399.757l0.993-0.113c-1.402-12.296-4.082-45.062,0.297-48.97
					c0.653-0.584,1.238-0.764,1.791-0.554c2.935,1.126,4.722,11.783,5.163,15.795l0.994-0.109
					c-0.169-1.538-1.769-15.073-5.798-16.619c-0.922-0.354-1.869-0.105-2.816,0.741C93.452,354.979,98.279,397.931,98.488,399.757z"
					/>
			</g>
		</g>
		<g>
			<polygon style="fill:#263238;" points="115.175,376.447 79.248,376.447 82.248,416.691 112.175,416.691 			"/>
			<polygon style="opacity:0.2;fill:#FFFFFF;enable-background:new    ;" points="104.263,376.447 103.263,416.691 82.248,416.691 
				79.248,376.447 			"/>
		</g>
		<g>
			<path style="fill:#407BFF;" d="M110.281,361.679c0.375,0.979,3.165,0.209,5.356-0.572c0.752,1.737,0.581,4.009-0.068,6.404
				c-2.499-0.014-6.003,0.079-6.311,0.703c-0.336,0.682,3.445,0.934,5.772,1.025c-0.62,1.766-1.435,3.544-2.281,5.175
				c-1.296-0.323-2.683-0.467-3.068,0.242c-0.399,0.736,0.454,1.876,1.37,2.807c-1.399,2.357-2.541,3.953-2.541,3.953
				s-2.333-2.151-4.65-5.108c-0.01-0.264-0.022-0.53-0.049-0.803c-0.095-0.957-0.603-1.105-1.214-0.907
				c-0.932-1.341-1.784-2.778-2.388-4.215c2.07-1.794,4.413-4.287,2.565-5.099c-1.115-0.49-2.346,0.069-3.454,0.963
				c0.014-0.378,0.056-0.749,0.14-1.11c1.652-7.069,7.239-4.024,7.239-4.024c1.33-3.443,5.121-4.819,7.668-2.01
				C112.776,359.52,109.818,360.47,110.281,361.679z"/>
			<path style="opacity:0.3;fill:#FFFFFF;enable-background:new    ;" d="M110.281,361.679c0.375,0.979,3.165,0.209,5.356-0.572
				c0.752,1.737,0.581,4.009-0.068,6.404c-2.499-0.014-6.003,0.079-6.311,0.703c-0.336,0.682,3.445,0.934,5.772,1.025
				c-0.62,1.766-1.435,3.544-2.281,5.175c-1.296-0.323-2.683-0.467-3.068,0.242c-0.399,0.736,0.454,1.876,1.37,2.807
				c-1.399,2.357-2.541,3.953-2.541,3.953s-2.333-2.151-4.65-5.108c-0.01-0.264-0.022-0.53-0.049-0.803
				c-0.095-0.957-0.603-1.105-1.214-0.907c-0.932-1.341-1.784-2.778-2.388-4.215c2.07-1.794,4.413-4.287,2.565-5.099
				c-1.115-0.49-2.346,0.069-3.454,0.963c0.014-0.378,0.056-0.749,0.14-1.11c1.652-7.069,7.239-4.024,7.239-4.024
				c1.33-3.443,5.121-4.819,7.668-2.01C112.776,359.52,109.818,360.47,110.281,361.679z"/>
		</g>
		<g>
			<path style="fill:#407BFF;" d="M83.605,366.457c1.133,0.084,2.22,0.344,3.283,0.691c0.277-0.759,0.458-1.55,0.484-2.377
				c0.228-7.246-4.959-4.191-7.7-6.32c-1.367-1.062-3.041-1.744-4.586-1.438c0.232,0.399,0.443,0.812,0.62,1.24
				c0.287,0.694-0.166,1.417-0.877,1.55c-0.669,0.125-1.42,0.067-2.035-0.241c-0.192-0.096-0.353-0.236-0.523-0.362
				c-0.383,0.646-0.722,1.439-0.995,2.423c-0.279,1.007-0.423,2.051-0.469,3.099c0.408,0.091,0.813,0.2,1.212,0.342
				c0.623,0.221,0.956,1.217,0.454,1.722c-0.441,0.443-0.946,0.795-1.495,1.049c0.179,1.194,0.512,2.325,0.912,3.396
				c0.123,0.019,0.247,0.033,0.369,0.057c0.264,0.051,0.524,0.12,0.782,0.193c0.148,0.042,0.295,0.092,0.434,0.159
				c0.359,0.17,0.621,0.477,0.677,0.879c0.056,0.395-0.109,0.804-0.427,1.046c-0.169,0.129-0.355,0.23-0.539,0.332
				c0.826,1.307,1.803,2.343,2.87,2.896c0,0,1.322-0.577,3.052-1.613c-0.216-0.29-0.433-0.58-0.634-0.88
				c-0.238-0.353-0.343-0.716-0.307-1.138c0.034-0.409,0.282-0.766,0.587-1.022c0.294-0.248,0.764-0.356,1.138-0.308
				c0.366,0.047,0.811,0.272,1.022,0.587c0.24,0.357,0.505,0.697,0.767,1.038c1.324-0.998,2.641-2.203,3.68-3.573
				c-0.041-0.012-0.083-0.024-0.11-0.032c-0.669-0.175-1.353-0.288-2.042-0.339c-0.861-0.064-1.397-0.93-1.33-1.725
				C81.952,366.926,82.803,366.397,83.605,366.457z"/>
			<path style="opacity:0.5;fill:#FFFFFF;enable-background:new    ;" d="M83.605,366.457c1.133,0.084,2.22,0.344,3.283,0.691
				c0.277-0.759,0.458-1.55,0.484-2.377c0.228-7.246-4.959-4.191-7.7-6.32c-1.367-1.062-3.041-1.744-4.586-1.438
				c0.232,0.399,0.443,0.812,0.62,1.24c0.287,0.694-0.166,1.417-0.877,1.55c-0.669,0.125-1.42,0.067-2.035-0.241
				c-0.192-0.096-0.353-0.236-0.523-0.362c-0.383,0.646-0.722,1.439-0.995,2.423c-0.279,1.007-0.423,2.051-0.469,3.099
				c0.408,0.091,0.813,0.2,1.212,0.342c0.623,0.221,0.956,1.217,0.454,1.722c-0.441,0.443-0.946,0.795-1.495,1.049
				c0.179,1.194,0.512,2.325,0.912,3.396c0.123,0.019,0.247,0.033,0.369,0.057c0.264,0.051,0.524,0.12,0.782,0.193
				c0.148,0.042,0.295,0.092,0.434,0.159c0.359,0.17,0.621,0.477,0.677,0.879c0.056,0.395-0.109,0.804-0.427,1.046
				c-0.169,0.129-0.355,0.23-0.539,0.332c0.826,1.307,1.803,2.343,2.87,2.896c0,0,1.322-0.577,3.052-1.613
				c-0.216-0.29-0.433-0.58-0.634-0.88c-0.238-0.353-0.343-0.716-0.307-1.138c0.034-0.409,0.282-0.766,0.587-1.022
				c0.294-0.248,0.764-0.356,1.138-0.308c0.366,0.047,0.811,0.272,1.022,0.587c0.24,0.357,0.505,0.697,0.767,1.038
				c1.324-0.998,2.641-2.203,3.68-3.573c-0.041-0.012-0.083-0.024-0.11-0.032c-0.669-0.175-1.353-0.288-2.042-0.339
				c-0.861-0.064-1.397-0.93-1.33-1.725C81.952,366.926,82.803,366.397,83.605,366.457z"/>
		</g>
		<g>
			<path style="fill:#407BFF;" d="M81.532,341.475c-0.632-0.453-1.317-0.794-2.028-1.078c0.188-0.52,0.44-1.015,0.789-1.461
				c3.06-3.906,4.444-0.025,6.818,0.059c1.184,0.042,2.363,0.418,3.04,1.257c-0.297,0.108-0.589,0.232-0.87,0.379
				c-0.455,0.239-0.535,0.817-0.219,1.199c0.296,0.359,0.716,0.659,1.175,0.766c0.143,0.034,0.289,0.031,0.434,0.04
				c-0.083,0.508-0.252,1.072-0.541,1.71c-0.295,0.652-0.678,1.263-1.114,1.833c-0.254-0.131-0.515-0.251-0.787-0.352
				c-0.425-0.157-1.037,0.22-0.994,0.706c0.037,0.426,0.148,0.833,0.325,1.207c-0.618,0.548-1.289,0.997-1.97,1.384
				c-0.073-0.044-0.144-0.091-0.219-0.132c-0.161-0.089-0.328-0.167-0.496-0.242c-0.096-0.043-0.196-0.081-0.298-0.107
				c-0.263-0.068-0.535-0.022-0.742,0.164c-0.203,0.183-0.296,0.47-0.235,0.737c0.032,0.142,0.085,0.276,0.138,0.411
				c-1.008,0.324-1.975,0.44-2.779,0.262c0,0-0.441-0.883-0.896-2.187c0.241-0.057,0.482-0.115,0.719-0.184
				c0.28-0.081,0.494-0.225,0.661-0.463c0.162-0.23,0.188-0.526,0.14-0.795c-0.046-0.259-0.245-0.522-0.463-0.661
				c-0.213-0.136-0.546-0.213-0.795-0.14c-0.283,0.082-0.571,0.144-0.858,0.208c-0.257-1.105-0.421-2.316-0.365-3.492
				c0.027,0.012,0.054,0.024,0.072,0.031c0.428,0.202,0.837,0.442,1.222,0.718c0.48,0.344,1.142,0.124,1.456-0.323
				C82.195,342.447,81.98,341.796,81.532,341.475z"/>
			<path style="opacity:0.3;fill:#FFFFFF;enable-background:new    ;" d="M81.532,341.475c-0.632-0.453-1.317-0.794-2.028-1.078
				c0.188-0.52,0.44-1.015,0.789-1.461c3.06-3.906,4.444-0.025,6.818,0.059c1.184,0.042,2.363,0.418,3.04,1.257
				c-0.297,0.108-0.589,0.232-0.87,0.379c-0.455,0.239-0.535,0.817-0.219,1.199c0.296,0.359,0.716,0.659,1.175,0.766
				c0.143,0.034,0.289,0.031,0.434,0.04c-0.083,0.508-0.252,1.072-0.541,1.71c-0.295,0.652-0.678,1.263-1.114,1.833
				c-0.254-0.131-0.515-0.251-0.787-0.352c-0.425-0.157-1.037,0.22-0.994,0.706c0.037,0.426,0.148,0.833,0.325,1.207
				c-0.618,0.548-1.289,0.997-1.97,1.384c-0.073-0.044-0.144-0.091-0.219-0.132c-0.161-0.089-0.328-0.167-0.496-0.242
				c-0.096-0.043-0.196-0.081-0.298-0.107c-0.263-0.068-0.535-0.022-0.742,0.164c-0.203,0.183-0.296,0.47-0.235,0.737
				c0.032,0.142,0.085,0.276,0.138,0.411c-1.008,0.324-1.975,0.44-2.779,0.262c0,0-0.441-0.883-0.896-2.187
				c0.241-0.057,0.482-0.115,0.719-0.184c0.28-0.081,0.494-0.225,0.661-0.463c0.162-0.23,0.188-0.526,0.14-0.795
				c-0.046-0.259-0.245-0.522-0.463-0.661c-0.213-0.136-0.546-0.213-0.795-0.14c-0.283,0.082-0.571,0.144-0.858,0.208
				c-0.257-1.105-0.421-2.316-0.365-3.492c0.027,0.012,0.054,0.024,0.072,0.031c0.428,0.202,0.837,0.442,1.222,0.718
				c0.48,0.344,1.142,0.124,1.456-0.323C82.195,342.447,81.98,341.796,81.532,341.475z"/>
		</g>
		<g>
			<path style="fill:#407BFF;" d="M110.804,348.727c0.21,1.47-3.776,2.438-7.028,2.98c0.265,2.669,2.041,5.367,4.494,7.886
				c3.085-1.738,7.49-4.036,8.302-3.475c0.886,0.613-3.624,3.529-6.445,5.244c1.984,1.761,4.218,3.402,6.389,4.84
				c1.383-1.292,3.002-2.426,3.967-1.813c1.001,0.637,0.73,2.636,0.236,4.42c3.356,1.957,5.87,3.147,5.87,3.147
				s1.409-4.271,2.242-9.53c-0.169-0.334-0.338-0.672-0.492-1.029c-0.541-1.251-0.014-1.783,0.879-1.959
				c0.231-2.302,0.298-4.669,0.055-6.866c-3.799-0.797-8.418-2.271-6.688-4.55c1.044-1.374,2.954-1.53,4.942-1.186
				c-0.278-0.458-0.585-0.89-0.938-1.278c-6.914-7.618-11.737,0-11.737,0c-4.018-3.349-9.662-2.442-10.882,2.79
				C106.227,347.772,110.545,346.911,110.804,348.727z"/>
			<path style="opacity:0.5;fill:#FFFFFF;enable-background:new    ;" d="M110.804,348.727c0.21,1.47-3.776,2.438-7.028,2.98
				c0.265,2.669,2.041,5.367,4.494,7.886c3.085-1.738,7.49-4.036,8.302-3.475c0.886,0.613-3.624,3.529-6.445,5.244
				c1.984,1.761,4.218,3.402,6.389,4.84c1.383-1.292,3.002-2.426,3.967-1.813c1.001,0.637,0.73,2.636,0.236,4.42
				c3.356,1.957,5.87,3.147,5.87,3.147s1.409-4.271,2.242-9.53c-0.169-0.334-0.338-0.672-0.492-1.029
				c-0.541-1.251-0.014-1.783,0.879-1.959c0.231-2.302,0.298-4.669,0.055-6.866c-3.799-0.797-8.418-2.271-6.688-4.55
				c1.044-1.374,2.954-1.53,4.942-1.186c-0.278-0.458-0.585-0.89-0.938-1.278c-6.914-7.618-11.737,0-11.737,0
				c-4.018-3.349-9.662-2.442-10.882,2.79C106.227,347.772,110.545,346.911,110.804,348.727z"/>
		</g>
	</g>
</g>
<g id="Device">
	<g>
		<path style="fill:#263238;" d="M310.598,416.691H142.664c-5.745,0-10.402-4.657-10.402-10.402V87.621
			c0-5.745,4.657-10.402,10.402-10.402h167.934c5.745,0,10.402,4.657,10.402,10.402v318.668
			C321.001,412.033,316.343,416.691,310.598,416.691z"/>
		<path style="fill:#407BFF;" d="M314.692,88.591v316.12c0,2.6-2.09,4.62-4.69,4.62h-167.12c-2.39,0-4.19-1.85-4.19-4.24V88.211
			c0-2.07,1.52-3.88,3.59-3.88h41.78c1.18,0,2.25,0.77,2.69,1.88l1.73,4.26c0.44,1.1,1.51,1.86,2.69,1.86h71.13
			c1.18,0,2.25-0.73,2.69-1.83l1.73-4.28c0.44-1.11,1.51-1.89,2.69-1.89h41.18C312.872,84.331,314.692,86.311,314.692,88.591z"/>
		<rect x="138.692" y="104.081" style="opacity:0.3;fill:#FFFFFF;enable-background:new    ;" width="176" height="284.25"/>
		<circle style="opacity:0.6;fill:#FFFFFF;enable-background:new    ;" cx="222.705" cy="84.747" r="2.416"/>
		<path style="opacity:0.6;fill:#FFFFFF;enable-background:new    ;" d="M230.01,84.747c0,0.855-0.693,1.548-1.548,1.548
			c-0.855,0-1.548-0.693-1.548-1.548c0-0.855,0.693-1.548,1.548-1.548C229.317,83.199,230.01,83.892,230.01,84.747z"/>
		<g>
			
				<rect x="158.542" y="94.172" transform="matrix(-1 -1.224647e-16 1.224647e-16 -1 319.258 191.242)" style="opacity:0.6;fill:#FFFFFF;enable-background:new    ;" width="2.174" height="2.898"/>
			
				<rect x="154.999" y="93.205" transform="matrix(-1 -1.224647e-16 1.224647e-16 -1 312.1722 190.2752)" style="opacity:0.6;fill:#FFFFFF;enable-background:new    ;" width="2.174" height="3.865"/>
			
				<rect x="151.456" y="92.238" transform="matrix(-1 -1.224647e-16 1.224647e-16 -1 305.0865 189.3084)" style="opacity:0.6;fill:#FFFFFF;enable-background:new    ;" width="2.174" height="4.832"/>
			
				<rect x="147.913" y="91.271" transform="matrix(-1 -1.224647e-16 1.224647e-16 -1 298.0007 188.3415)" style="opacity:0.6;fill:#FFFFFF;enable-background:new    ;" width="2.174" height="5.799"/>
		</g>
		<g>
			<rect x="293.939" y="93.114" style="opacity:0.6;fill:#FFFFFF;enable-background:new    ;" width="1.288" height="2.898"/>
			
				<rect x="296.113" y="92.057" transform="matrix(-1 -1.224647e-16 1.224647e-16 -1 602.4933 189.1267)" style="opacity:0.6;fill:#FFFFFF;enable-background:new    ;" width="10.266" height="5.014"/>
		</g>
		<g>
			<g>
				<defs>
					<path id="SVGID_1_" d="M228.702,162.814c0,22.009-17.842,39.851-39.851,39.851c-22.009,0-39.851-17.842-39.851-39.851
						s16.01-47.58,38.019-47.58C209.029,115.234,228.702,140.805,228.702,162.814z"/>
				</defs>
				<clipPath id="SVGID_00000161606250861768147910000001236727498733939078_">
					<use xlink:href="#SVGID_1_"  style="overflow:visible;"/>
				</clipPath>
				
					<circle style="clip-path:url(#SVGID_00000161606250861768147910000001236727498733939078_);fill:#FFFFFF;" cx="188.851" cy="162.814" r="39.851"/>
				<g id="_x3C_Group_x3E__64_" style="clip-path:url(#SVGID_00000161606250861768147910000001236727498733939078_);">
					<path style="fill:#263238;" d="M170.365,298.957l0.04-8.262c0-0.279-0.193-0.52-0.464-0.582l-6.049-1.37
						c-0.542-0.117-1.076,0.227-1.193,0.768c-0.016,0.073-0.023,0.147-0.023,0.221c0.03,2.673,0.185,4.621,0.169,7.978
						c-0.01,2.068-0.257,8.304-0.271,11.159c-0.014,2.855,2.805,3.241,3.07,2.074c1.168-5.237,2.77-9.174,4.283-10.846
						C170.214,299.787,170.371,299.379,170.365,298.957z"/>
					<g>
						<path style="fill:#263238;" d="M207.25,222.881l2.668,13.996c0,0,21.091,34.136,21.079,53.846
							c-0.014,23.543-61.426,9.961-61.426,9.961v-10.84c0,0,36.709,3.155,40.017-0.527c4.015-4.469-20.737-39.061-20.737-39.061
							L207.25,222.881z"/>
						<path style="opacity:0.2;fill:#FFFFFF;enable-background:new    ;" d="M231,290.726c-0.008,12.979-18.679,14.673-35.43,13.58
							c-11.167-0.726-21.483-2.696-24.847-3.38c-0.743-0.15-1.152-0.242-1.152-0.242v-10.842c0,0,0.484,0.042,1.352,0.108
							c4.173,0.334,17.168,1.277,27,1.135c5.842-0.083,10.575-0.559,11.668-1.769c1.97-2.195-3.005-11.668-8.572-20.732
							c0-0.008,0-0.008,0-0.008c-5.767-9.373-12.169-18.32-12.169-18.32l8.063-12.002l10.333-15.374l2.671,13.997
							C209.917,236.875,231.008,271.012,231,290.726z"/>
					</g>
					<path style="opacity:0.2;enable-background:new    ;" d="M197.924,291.085l-2.354,13.221
						c-11.167-0.726-21.483-2.696-24.847-3.38l0.2-10.975C175.096,290.283,188.092,291.226,197.924,291.085z"/>
					<path style="opacity:0.2;enable-background:new    ;" d="M196.947,253.226c0,0,3.43,8.071,4.073,15.349
						c-5.767-9.373-12.169-18.32-12.169-18.32l8.063-12.002l4.248-1.377C201.162,236.875,202.104,242.389,196.947,253.226z"/>
					<path style="fill:#263238;" d="M191.46,371.724h-8.262c-0.279,0.001-0.519,0.195-0.58,0.467l-1.341,6.056
						c-0.115,0.542,0.232,1.075,0.774,1.189c0.073,0.015,0.147,0.023,0.221,0.022c2.673-0.043,4.62-0.208,7.977-0.208
						c2.068,0,8.305,0.216,11.16,0.216s3.227-2.82,2.059-3.08c-5.243-1.142-9.188-2.725-10.866-4.231
						C192.292,371.871,191.883,371.716,191.46,371.724z"/>
					<g>
						<path style="fill:#263238;" d="M170.451,223.328c0,0-1.835,6.855,0,38.27c2.817,48.233,11.757,112.446,11.757,112.446
							l10.394-1.887c0,0-1.327-96.053,0.07-122.561c0,0,14.688-13.174,14.578-26.714
							C207.14,209.341,170.451,223.328,170.451,223.328z"/>
						<path style="opacity:0.2;fill:#FFFFFF;enable-background:new    ;" d="M170.451,223.328c0,0-1.835,6.855,0,38.27
							c2.817,48.233,11.757,112.446,11.757,112.446l10.394-1.887c0,0-1.327-96.053,0.07-122.561c0,0,14.688-13.174,14.578-26.714
							C207.14,209.341,170.451,223.328,170.451,223.328z"/>
					</g>
					<g>
						<polygon style="fill:#263238;" points="206.787,219.003 170.451,219.003 170.451,223.328 207.25,222.881 						"/>
						
							<rect x="182.13" y="217.056" transform="matrix(-1 -1.224647e-16 1.224647e-16 -1 365.5587 441.79)" style="fill:#263238;" width="1.298" height="7.678"/>
						
							<rect x="200.515" y="217.056" transform="matrix(-1 -1.224647e-16 1.224647e-16 -1 402.3273 441.79)" style="fill:#263238;" width="1.298" height="7.678"/>
						
							<rect x="190.226" y="218.245" transform="matrix(-1 -1.224647e-16 1.224647e-16 -1 387.1717 441.3336)" style="fill:#FFFFFF;" width="6.72" height="4.843"/>
						
							<rect x="182.13" y="217.056" transform="matrix(-1 -1.224647e-16 1.224647e-16 -1 365.5587 441.79)" style="opacity:0.2;fill:#FFFFFF;enable-background:new    ;" width="1.298" height="7.678"/>
						
							<rect x="200.515" y="217.056" transform="matrix(-1 -1.224647e-16 1.224647e-16 -1 402.3273 441.79)" style="opacity:0.2;fill:#FFFFFF;enable-background:new    ;" width="1.298" height="7.678"/>
					</g>
					<g>
						<path style="fill:#407BFF;" d="M203.19,156.115c0,0-22.962-1.081-40.069,3.236c0,0,7.552,38.022,7.265,59.651h36.401
							C206.787,219.003,209.153,178.436,203.19,156.115z"/>
						<path style="opacity:0.6;fill:#FFFFFF;enable-background:new    ;" d="M206.784,219.003h-36.39
							c0.033-2.354-0.033-4.891-0.167-7.562c-0.317-6.243-1.027-13.162-1.887-19.856c-0.083-0.651-0.167-1.302-0.25-1.953
							c-0.584-4.348-1.21-8.555-1.82-12.394c-1.644-10.308-3.147-17.886-3.147-17.886c17.102-4.315,40.062-3.238,40.062-3.238
							C209.146,178.44,206.784,219.003,206.784,219.003z"/>
					</g>
					<path style="fill:#EBB376;" d="M176.529,157.627c3.297,2.996,11.375,1.888,11.375,1.888s5.042-1.38,3.983-2.955
						c-2.97-0.491-4.408-1.877-5.002-3.65c-0.344-1.033-0.396-2.195-0.301-3.392c0.043-0.629,0.138-1.266,0.249-1.894l-9.986-7.395
						C178.156,145.11,179.757,154.089,176.529,157.627z"/>
					<path style="opacity:0.2;enable-background:new    ;" d="M179.154,144.93c0.396,5.992,5.32,7.645,7.73,7.98
						c-0.344-1.033-0.396-2.195-0.301-3.392L179.154,144.93z"/>
					<g>
						<path style="fill:#263238;" d="M191.559,124.835c0,0,3.42,8.792-0.628,13.372c-4.048,4.581-7.837-12.361-7.837-12.361
							L191.559,124.835z"/>
						<path style="fill:#EBB376;" d="M178.525,148.578c3.097,2.845,7.117,2.872,10.201,1.079c1.984-1.149,3.577-3.058,4.294-5.451
							c0.098-0.313,0.175-0.639,0.241-0.971c1.134-6.093-0.286-15.991-6.983-18.321c-4.763-1.696-10.011,0.793-11.705,5.565
							c-0.491,1.354-0.642,2.808-0.463,4.241C174.842,141.383,174.959,145.336,178.525,148.578z"/>
						<path style="fill:#263238;" d="M184.367,136.073c-0.01,0.542,0.335,0.971,0.697,0.951c0.362-0.019,0.62-0.479,0.596-1.022
							c-0.024-0.543-0.343-0.971-0.697-0.952C184.609,135.07,184.343,135.522,184.367,136.073z"/>
						<path style="fill:#263238;" d="M190.529,135.759c-0.01,0.542,0.343,0.971,0.697,0.952c0.353-0.019,0.62-0.479,0.596-1.022
							c-0.024-0.543-0.343-0.971-0.697-0.952C190.772,134.756,190.504,135.242,190.529,135.759z"/>
						<path style="fill:#D58745;" d="M188.585,136.127c0.734,1.634,1.69,3.159,2.842,4.531c-0.73,0.581-1.68,0.809-2.595,0.623
							L188.585,136.127z"/>
						<path style="fill:#263238;" d="M182.353,134.175c0.119,0.011,0.235-0.043,0.304-0.141c0.442-0.685,1.181-1.121,1.994-1.176
							c0.176,0.004,0.321-0.136,0.325-0.312c0.004-0.176-0.136-0.321-0.312-0.325c0,0-0.001,0-0.001,0
							c-1.029,0.044-1.974,0.585-2.533,1.45c-0.103,0.143-0.071,0.342,0.071,0.445c0.002,0.002,0.004,0.003,0.006,0.004
							C182.253,134.146,182.302,134.165,182.353,134.175z"/>
						<path style="fill:#263238;" d="M193.068,133.499c0.061,0.021,0.127,0.022,0.189,0.004c0.155-0.082,0.215-0.275,0.132-0.431
							c-0.001-0.002-0.002-0.004-0.003-0.006c-0.478-0.917-1.372-1.544-2.396-1.681c-0.175-0.013-0.328,0.119-0.341,0.294l0,0.001
							c-0.008,0.174,0.121,0.324,0.295,0.341l0,0c0.806,0.132,1.502,0.637,1.877,1.362
							C192.882,133.456,192.973,133.498,193.068,133.499z"/>
						<path style="fill:#263238;" d="M178.596,126.118l0.65,2.905c-0.913,0.609-1.388,1.755-0.828,2.869
							c1.194,2.379,0.17,6.354-1.576,8.071c0,0-0.165-1.066-1.044-0.722c-0.879,0.344-0.077,5.898,1.949,8.385
							c0,0-3.399-2.637-5.485-8.345c-1.929-5.279-2.055-9.284-1.149-11.489L178.596,126.118z"/>
						<path style="fill:#EBB376;" d="M171.466,140.357c0.82,1.477,2.192,2.568,3.815,3.035c2.154,0.603,3.231-1.326,2.639-3.362
							c-0.544-1.805-2.312-4.354-4.477-4.039C171.277,136.307,170.482,138.532,171.466,140.357z"/>
						<path style="fill:#263238;" d="M179.246,129.022c0,0,7.24,2.567,11.36-1.257c4.119-3.824-0.64-8.981-0.64-8.981
							s-1.451,1.627-3.756,1.791c-2.305,0.164-7.639-1.221-11.928,0.96c-4.289,2.181-5.899,8.37-1.97,11.177L179.246,129.022z"/>
						
							<path style="fill:none;stroke:#263238;stroke-width:0.5;stroke-linecap:round;stroke-linejoin:round;stroke-miterlimit:10;" d="
							M185.013,142.219c0,0,1.215,1.993,3.572,1.286"/>
					</g>
					<path style="fill:#407BFF;" d="M191.192,159.027l-0.966,4.75c0,0,5.531,23.071,6.721,35.038l-2.015,2.019l-3.171-2.019
						c0,0-0.284-24.368-3.082-34.606l-5.015-4.107l3.947-1.278L191.192,159.027z"/>
					<g>
						<path style="fill:#407BFF;" d="M177.658,153.107l9.592,4.326l0.562-3.467l3.527,1.24c1.266,0.445,2.061,1.701,1.921,3.036
							l-0.398,3.805l-4.867-2.663l-2.425,3.43l-11.522-5.55L177.658,153.107z"/>
						<path style="opacity:0.7;fill:#FFFFFF;enable-background:new    ;" d="M177.658,153.107l9.592,4.326l0.562-3.467l3.527,1.24
							c1.266,0.445,2.061,1.701,1.921,3.036l-0.398,3.805l-4.867-2.663l-2.425,3.43l-11.522-5.55L177.658,153.107z"/>
					</g>
					<g>
						<path style="fill:#263238;" d="M174.311,156.667c0,0,9.052,7.366,19.275,30.831c0,0,0.372-22.933-1.554-31.926l11.155,0.541
							c0,0,8.165,18.035,4.064,56.997l2.832,19.481l-12.302,5.145l-2.835-9.059l-2.913,8.903l-23.717-3.173l1.256-24.599
							c0,0-5.693-40.654-6.446-50.456L174.311,156.667z"/>
						<path style="opacity:0.1;fill:#FFFFFF;enable-background:new    ;" d="M210.085,232.59l-12.303,5.141l-2.838-9.056
							l-2.913,8.897l-9.164-1.227l-14.556-1.945l0.626-12.219l0.634-12.378c0,0-0.25-1.744-0.634-4.599
							c-0.417-2.988-0.993-7.203-1.627-11.893c-0.309-2.312-0.634-4.741-0.968-7.203c-0.342-2.596-0.684-5.233-1.018-7.795
							c-1.035-8.079-1.928-15.474-2.195-18.963l10.408-2.504l0.776-0.184c0,0,8.705,7.086,18.687,29.496
							c0.192,0.442,0.384,0.885,0.584,1.335c0,0,0.008-0.459,0.017-1.269c0.042-4.933,0.083-22.936-1.569-30.656l11.159,0.542
							c0,0,4.624,10.208,5.166,31.858c0.059,2.562,0.067,5.292,0.008,8.179c-0.117,5.133-0.459,10.783-1.11,16.96L210.085,232.59z"
							/>
						<path style="opacity:0.2;fill:#FFFFFF;enable-background:new    ;" d="M197.698,166.057l2.587,4.565
							c0,0-2.688,17.561-7.011,23.67v-3.631l-16.743-19.305l3.005-4.641L172,168.202c0,0-0.701-7.053,1.536-11.351l0.776-0.184
							c0,0,9.048,7.37,19.272,30.831c0,0,0.376-22.936-1.553-31.925c0,0,5.333,2.888,9.131,10.483H197.698z"/>
					</g>
					<path style="opacity:0.2;enable-background:new    ;" d="M208.366,196.15c-2.829-0.426-6.644-1.143-11.418-2.329
						c0,0-14.381,9.323-20.866,10.441c-3.03,0.526-5.35,0.81-7.144,0.943c-0.417-2.988-0.993-7.203-1.627-11.893
						c-0.309-2.312-0.634-4.741-0.968-7.203l4.949-16.1l12.369,15.048L193,186.16l0.601,0.067l14.756,1.744
						C208.416,190.533,208.424,193.262,208.366,196.15z"/>
					<g>
						<path style="fill:#263238;" d="M203.19,156.117c4.92,1.153,20.109,22.684,19.668,31.509c-0.44,8.826-38.578,4.18-38.578,4.18
							l0.995-4.307l22.663-7.596c0,0-0.372-5.108-1.561-11.228C204.973,161.452,203.19,156.117,203.19,156.117z"/>
						<path style="opacity:0.1;fill:#FFFFFF;enable-background:new    ;" d="M222.855,187.628c-0.234,4.766-11.459,5.6-21.734,5.358
							c-3.322-0.075-6.535-0.259-9.256-0.467c-4.465-0.334-7.587-0.718-7.587-0.718l0.993-4.307l7.896-2.646l14.773-4.949
							c0,0-0.376-5.108-1.561-11.226c-0.067-0.367-0.142-0.718-0.217-1.077c-1.36-6.669-2.971-11.485-2.971-11.485
							C208.107,157.273,223.298,178.798,222.855,187.628z"/>
					</g>
					<path style="opacity:0.2;enable-background:new    ;" d="M214.492,179.833c0,0-5.809,7.754-13.371,13.154
						c-3.322-0.075-6.535-0.259-9.256-0.467c-0.793-2.304-0.693-5.024-0.693-5.024l1.995-2.646l14.773-4.949
						c0,0-0.376-5.108-1.561-11.226c-0.067-0.367-0.142-0.718-0.217-1.077l0.075-0.092
						C206.238,167.505,212.84,172.563,214.492,179.833z"/>
					<path style="fill:#EBB376;" d="M187.529,185.115c0,0-4.512-3.632-6.273-4.182c-1.761-0.55-5.173,2.091-5.173,2.091l4.402,6.273
						L187.529,185.115z"/>
					<path style="fill:#EBB376;" d="M207.78,184.344l6.714-4.514c0,0-5.063-3.63-5.723-3.74c-0.66-0.11-3.962,3.74-3.962,3.74
						L207.78,184.344z"/>
					<g>
						<path style="fill:#263238;" d="M163.128,159.355c-6.526,3.198,2.811,34.19,10.91,40.486
							c8.098,6.296,35.58-15.554,35.58-15.554l-4.149-5.817c0,0-21.506,7.493-24.29,6.794s-10.403-16.812-12.867-20.532
							c-2.464-3.72-6.122-5.906-6.122-5.906"/>
						<path style="opacity:0.1;fill:#FFFFFF;enable-background:new    ;" d="M163.128,159.355
							c-6.526,3.198,2.811,34.19,10.91,40.486c8.098,6.296,35.58-15.554,35.58-15.554l-4.149-5.817c0,0-21.506,7.493-24.29,6.794
							s-10.403-16.812-12.867-20.532c-2.464-3.72-6.122-5.906-6.122-5.906"/>
					</g>
				</g>
			</g>
			<g>
				<path style="fill:#407BFF;" d="M282.929,144.296h-37.11c-2.643,0-4.785-2.143-4.785-4.786l0,0c0-2.643,2.143-4.785,4.785-4.785
					h37.11c2.643,0,4.786,2.143,4.786,4.785l0,0C287.714,142.154,285.572,144.296,282.929,144.296z"/>
				<path style="fill:#407BFF;" d="M299.842,155.619h-56.975c-1.013,0-1.835-0.822-1.835-1.835l0,0c0-1.013,0.822-1.835,1.835-1.835
					h56.975c1.013,0,1.835,0.822,1.835,1.835l0,0C301.677,154.798,300.856,155.619,299.842,155.619z"/>
				<path style="fill:#407BFF;" d="M275.67,164.162h-32.802c-1.013,0-1.835-0.821-1.835-1.835l0,0c0-1.013,0.822-1.835,1.835-1.835
					h32.802c1.013,0,1.835,0.822,1.835,1.835l0,0C277.505,163.341,276.683,164.162,275.67,164.162z"/>
			</g>
			<path style="opacity:0.2;enable-background:new    ;" d="M259.913,186.657h-14.42c-2.464,0-4.46-1.997-4.46-4.46l0,0
				c0-2.464,1.997-4.461,4.46-4.461h14.42c2.464,0,4.461,1.997,4.461,4.461l0,0C264.374,184.66,262.377,186.657,259.913,186.657z"/>
			<rect x="143.319" y="214.715" style="fill:#407BFF;" width="65.143" height="163.23"/>
			<g style="opacity:0.3;enable-background:new    ;">
				<path style="fill:#FFFFFF;" d="M191.353,257.826h-36.975c-1.013,0-1.835-0.822-1.835-1.835l0,0c0-1.013,0.822-1.835,1.835-1.835
					h36.975c1.013,0,1.835,0.821,1.835,1.835l0,0C193.188,257.004,192.366,257.826,191.353,257.826z"/>
				<path style="fill:#FFFFFF;" d="M177.18,266.369h-22.802c-1.013,0-1.835-0.822-1.835-1.835l0,0c0-1.013,0.822-1.835,1.835-1.835
					h22.802c1.013,0,1.835,0.822,1.835,1.835l0,0C179.015,265.547,178.194,266.369,177.18,266.369z"/>
			</g>
			<g style="opacity:0.3;enable-background:new    ;">
				<path style="fill:#FFFFFF;" d="M181.353,283.379h-26.975c-1.013,0-1.835-0.822-1.835-1.835l0,0c0-1.013,0.822-1.835,1.835-1.835
					h26.975c1.013,0,1.835,0.822,1.835,1.835l0,0C183.188,282.558,182.366,283.379,181.353,283.379z"/>
				<path style="fill:#FFFFFF;" d="M187.18,291.922h-32.802c-1.013,0-1.835-0.822-1.835-1.835l0,0c0-1.013,0.822-1.835,1.835-1.835
					h32.802c1.013,0,1.835,0.822,1.835,1.835l0,0C189.015,291.101,188.194,291.922,187.18,291.922z"/>
			</g>
			<g style="opacity:0.3;enable-background:new    ;">
				<path style="fill:#FFFFFF;" d="M191.353,308.932h-36.975c-1.013,0-1.835-0.822-1.835-1.835l0,0c0-1.013,0.822-1.835,1.835-1.835
					h36.975c1.013,0,1.835,0.822,1.835,1.835l0,0C193.188,308.111,192.366,308.932,191.353,308.932z"/>
				<path style="fill:#FFFFFF;" d="M167.18,317.476h-12.802c-1.013,0-1.835-0.821-1.835-1.835l0,0c0-1.013,0.822-1.835,1.835-1.835
					h12.802c1.013,0,1.835,0.822,1.835,1.835l0,0C169.015,316.654,168.194,317.476,167.18,317.476z"/>
			</g>
			<g style="opacity:0.3;enable-background:new    ;">
				<path style="fill:#FFFFFF;" d="M171.353,334.486h-16.975c-1.013,0-1.835-0.822-1.835-1.835l0,0c0-1.013,0.822-1.835,1.835-1.835
					h16.975c1.013,0,1.835,0.822,1.835,1.835l0,0C173.188,333.664,172.366,334.486,171.353,334.486z"/>
				<path style="fill:#FFFFFF;" d="M187.18,343.029h-32.802c-1.013,0-1.835-0.822-1.835-1.835l0,0c0-1.013,0.822-1.835,1.835-1.835
					h32.802c1.013,0,1.835,0.822,1.835,1.835l0,0C189.015,342.207,188.194,343.029,187.18,343.029z"/>
			</g>
			
				<rect x="212.154" y="214.715" transform="matrix(-1 -1.224647e-16 1.224647e-16 -1 521.8901 592.66)" style="opacity:0.3;fill:#FFFFFF;enable-background:new    ;" width="97.582" height="163.23"/>
			<g style="opacity:0.2;enable-background:new    ;">
				<path d="M227.546,232.273h26.975c1.013,0,1.835-0.822,1.835-1.835c0-1.013-0.821-1.835-1.835-1.835h-26.975
					c-1.014,0-1.835,0.821-1.835,1.835C225.711,231.451,226.532,232.273,227.546,232.273z"/>
				<path d="M290.52,247.337h-50.975c-1.014,0-1.835,0.822-1.835,1.835c0,1.013,0.822,1.835,1.835,1.835h50.975
					c1.013,0,1.835-0.821,1.835-1.835C292.355,248.159,291.534,247.337,290.52,247.337z"/>
				<path d="M227.546,259.55h62.802c1.013,0,1.835-0.822,1.835-1.835c0-1.013-0.821-1.835-1.835-1.835h-62.802
					c-1.014,0-1.835,0.821-1.835,1.835C225.711,258.729,226.532,259.55,227.546,259.55z"/>
				<path d="M290.52,266.072h-62.975c-1.014,0-1.835,0.822-1.835,1.835c0,1.013,0.822,1.835,1.835,1.835h62.975
					c1.013,0,1.835-0.822,1.835-1.835C292.355,266.894,291.534,266.072,290.52,266.072z"/>
				<path d="M227.546,278.285h62.802c1.013,0,1.835-0.821,1.835-1.835c0-1.013-0.821-1.835-1.835-1.835h-62.802
					c-1.014,0-1.835,0.822-1.835,1.835C225.711,277.464,226.532,278.285,227.546,278.285z"/>
				<path d="M290.52,284.807h-62.975c-1.014,0-1.835,0.822-1.835,1.835c0,1.013,0.822,1.835,1.835,1.835h62.975
					c1.013,0,1.835-0.822,1.835-1.835C292.355,285.629,291.534,284.807,290.52,284.807z"/>
				<path d="M227.546,297.02h48.802c1.013,0,1.835-0.822,1.835-1.835s-0.821-1.835-1.835-1.835h-48.802
					c-1.014,0-1.835,0.822-1.835,1.835S226.532,297.02,227.546,297.02z"/>
				<path d="M239.546,315.755h50.802c1.013,0,1.835-0.822,1.835-1.835c0-1.013-0.821-1.835-1.835-1.835h-50.802
					c-1.014,0-1.835,0.822-1.835,1.835C237.711,314.933,238.532,315.755,239.546,315.755z"/>
				<path d="M290.52,322.277h-62.975c-1.014,0-1.835,0.822-1.835,1.835s0.822,1.835,1.835,1.835h62.975
					c1.013,0,1.835-0.822,1.835-1.835S291.534,322.277,290.52,322.277z"/>
				<path d="M227.546,334.49h62.802c1.013,0,1.835-0.821,1.835-1.835c0-1.013-0.821-1.835-1.835-1.835h-62.802
					c-1.014,0-1.835,0.822-1.835,1.835C225.711,333.668,226.532,334.49,227.546,334.49z"/>
				<path d="M277.52,341.012h-49.975c-1.014,0-1.835,0.822-1.835,1.835c0,1.013,0.822,1.835,1.835,1.835h49.975
					c1.013,0,1.835-0.822,1.835-1.835C279.355,341.833,278.534,341.012,277.52,341.012z"/>
				<path d="M290.52,359.746h-62.975c-1.014,0-1.835,0.822-1.835,1.835c0,1.013,0.822,1.835,1.835,1.835h62.975
					c1.013,0,1.835-0.822,1.835-1.835C292.355,360.568,291.534,359.746,290.52,359.746z"/>
			</g>
			<g style="opacity:0.3;enable-background:new    ;">
				<path style="fill:#FFFFFF;" d="M181.353,232.273h-26.975c-1.013,0-1.835-0.822-1.835-1.835l0,0c0-1.013,0.822-1.835,1.835-1.835
					h26.975c1.013,0,1.835,0.821,1.835,1.835l0,0C183.188,231.451,182.366,232.273,181.353,232.273z"/>
				<path style="fill:#FFFFFF;" d="M167.18,240.816h-12.802c-1.013,0-1.835-0.822-1.835-1.835l0,0c0-1.013,0.822-1.835,1.835-1.835
					h12.802c1.013,0,1.835,0.822,1.835,1.835l0,0C169.015,239.994,168.194,240.816,167.18,240.816z"/>
			</g>
		</g>
	</g>
</g>
<g id="Character">
	<g id="_x3C_Group_x3E__62_">
		<path style="fill:#EBB376;" d="M396.901,180.862l2.44-4.434l6.276-9.128l1.182-7.56c0,0,5.497,2.051,6.404,3.633
			c0.907,1.582,0.478,9.697,0,10.684c-0.478,0.987-6.153,4.885-6.153,4.885l-3.028,5.794L396.901,180.862z"/>
		<g>
			<path style="fill:#263238;" d="M369.06,149.087c0,0,20.325,31.913,22.698,34.77c2.374,2.857,5.011-7.429,5.011-7.429
				l10.286,4.484c0,0-2.901,19.507-10.813,20.303c-7.912,0.796-24.791-20.039-24.791-20.039L369.06,149.087z"/>
			<path style="opacity:0.1;fill:#FFFFFF;enable-background:new    ;" d="M407.05,180.907c0,0-2.9,19.51-10.81,20.31
				c-3.95,0.39-10.15-4.61-15.35-9.72c-5.21-5.11-9.44-10.32-9.44-10.32l-0.82-10.95l-1.57-21.14c0,0,20.32,31.91,22.7,34.77
				c2.37,2.86,5.01-7.43,5.01-7.43L407.05,180.907z"/>
		</g>
		<path style="opacity:0.2;enable-background:new    ;" d="M380.89,191.497c-5.21-5.11-9.44-10.32-9.44-10.32l-0.82-10.95
			C372.98,172.377,380.05,179.787,380.89,191.497z"/>
		<path style="fill:#263238;" d="M329.731,320.229l0.048-9.899c0-0.334-0.231-0.623-0.556-0.697l-7.248-1.642
			c-0.649-0.141-1.289,0.272-1.43,0.921c-0.019,0.087-0.028,0.176-0.027,0.264c0.036,3.203,0.222,5.536,0.202,9.558
			c-0.012,2.477-0.308,9.95-0.324,13.37c-0.017,3.421,3.36,3.883,3.678,2.485c1.399-6.275,3.319-10.992,5.132-12.994
			C329.55,321.223,329.738,320.734,329.731,320.229z"/>
		<g>
			<path style="fill:#263238;" d="M373.924,229.08l3.196,16.769c0,0,25.269,40.899,25.255,64.514
				c-0.017,28.208-73.597,11.934-73.597,11.934V309.31c0,0,43.983,3.78,47.946-0.632c4.81-5.355-24.846-46.8-24.846-46.8
				L373.924,229.08z"/>
			<path style="opacity:0.2;fill:#FFFFFF;enable-background:new    ;" d="M402.38,310.367c-0.01,15.55-22.38,17.58-42.45,16.27
				c-13.38-0.87-25.74-3.23-29.77-4.05c-0.89-0.18-1.38-0.29-1.38-0.29v-12.99c0,0,0.58,0.05,1.62,0.13c5,0.4,20.57,1.53,32.35,1.36
				c7-0.1,12.67-0.67,13.98-2.12c2.36-2.63-3.6-13.98-10.27-24.84c0-0.01,0-0.01,0-0.01c-6.91-11.23-14.58-21.95-14.58-21.95
				l9.66-14.38l12.38-18.42l3.2,16.77C377.12,245.847,402.39,286.747,402.38,310.367z"/>
		</g>
		<path style="opacity:0.2;enable-background:new    ;" d="M362.75,310.797l-2.82,15.84c-13.38-0.87-25.74-3.23-29.77-4.05
			l0.24-13.15C335.4,309.837,350.97,310.967,362.75,310.797z"/>
		<path style="opacity:0.2;enable-background:new    ;" d="M361.58,265.437c0,0,4.11,9.67,4.88,18.39
			c-6.91-11.23-14.58-21.95-14.58-21.95l9.66-14.38l5.09-1.65C366.63,245.847,367.758,252.453,361.58,265.437z"/>
		<path style="fill:#263238;" d="M355.006,407.413h-9.899c-0.334,0.002-0.622,0.234-0.694,0.56l-1.607,7.256
			c-0.138,0.65,0.278,1.288,0.927,1.425c0.087,0.018,0.176,0.027,0.264,0.026c3.203-0.052,5.535-0.249,9.557-0.249
			c2.477,0,9.951,0.259,13.372,0.259c3.421,0,3.866-3.379,2.467-3.69c-6.281-1.368-11.008-3.265-13.019-5.069
			C356.002,407.59,355.512,407.404,355.006,407.413z"/>
		<g>
			<path style="fill:#263238;" d="M329.834,229.615c0,0-2.198,8.213,0,45.852c3.375,57.789,14.087,134.725,14.087,134.725
				l12.453-2.261c0,0-1.59-115.085,0.084-146.845c0,0,17.598-15.784,17.466-32.007C373.793,212.856,329.834,229.615,329.834,229.615
				z"/>
			<path style="opacity:0.2;fill:#FFFFFF;enable-background:new    ;" d="M329.834,229.615c0,0-2.198,8.213,0,45.852
				c3.375,57.789,14.087,134.725,14.087,134.725l12.453-2.261c0,0-1.59-115.085,0.084-146.845c0,0,17.598-15.784,17.466-32.007
				C373.793,212.856,329.834,229.615,329.834,229.615z"/>
		</g>
		<g>
			<polygon style="fill:#263238;" points="373.37,224.433 329.834,224.433 329.834,229.615 373.924,229.08 			"/>
			
				<rect x="343.828" y="222.1" transform="matrix(-1 -1.224647e-16 1.224647e-16 -1 689.2101 453.4002)" style="fill:#263238;" width="1.555" height="9.199"/>
			
				<rect x="365.854" y="222.1" transform="matrix(-1 -1.224647e-16 1.224647e-16 -1 733.2639 453.4002)" style="fill:#263238;" width="1.555" height="9.199"/>
			
				<rect x="353.527" y="223.526" transform="matrix(-1 -1.224647e-16 1.224647e-16 -1 715.1054 452.8533)" style="fill:#FFFFFF;" width="8.052" height="5.802"/>
			
				<rect x="343.828" y="222.1" transform="matrix(-1 -1.224647e-16 1.224647e-16 -1 689.2101 453.4002)" style="opacity:0.2;fill:#FFFFFF;enable-background:new    ;" width="1.555" height="9.199"/>
			
				<rect x="365.854" y="222.1" transform="matrix(-1 -1.224647e-16 1.224647e-16 -1 733.2639 453.4002)" style="opacity:0.2;fill:#FFFFFF;enable-background:new    ;" width="1.555" height="9.199"/>
		</g>
		<g>
			<path style="fill:#407BFF;" d="M369.06,149.085c0,0-27.512-1.296-48.008,3.878c0,0,9.049,45.556,8.705,71.47h43.613
				C373.37,224.433,376.204,175.829,369.06,149.085z"/>
			<path style="opacity:0.6;fill:#FFFFFF;enable-background:new    ;" d="M373.366,224.433h-43.6c0.04-2.82-0.04-5.86-0.2-9.06
				c-0.38-7.48-1.23-15.77-2.26-23.79c-0.1-0.78-0.2-1.56-0.3-2.34c-0.7-5.21-1.45-10.25-2.18-14.85
				c-1.97-12.35-3.77-21.43-3.77-21.43c20.49-5.17,48-3.88,48-3.88C376.196,175.833,373.366,224.433,373.366,224.433z"/>
		</g>
		<path style="fill:#EBB376;" d="M337.116,150.897c3.95,3.589,13.629,2.262,13.629,2.262s6.041-1.654,4.772-3.541
			c-3.558-0.588-5.281-2.249-5.993-4.373c-0.412-1.238-0.474-2.63-0.361-4.064c0.052-0.753,0.165-1.516,0.299-2.269l-11.964-8.86
			C339.065,135.9,340.983,146.658,337.116,150.897z"/>
		<path style="opacity:0.2;enable-background:new    ;" d="M340.261,135.683c0.475,7.179,6.375,9.159,9.262,9.561
			c-0.412-1.238-0.474-2.63-0.361-4.064L340.261,135.683z"/>
		<g>
			<path style="fill:#263238;" d="M333.508,111.448c0,0-3.338,10.798,1.889,15.928c5.227,5.13,8.314-15.44,8.314-15.44
				L333.508,111.448z"/>
			<path style="fill:#EBB376;" d="M351.107,138.713c-3.459,3.663-8.261,4.038-12.099,2.158c-2.468-1.205-4.535-3.35-5.596-6.148
				c-0.144-0.366-0.263-0.749-0.371-1.14c-1.874-7.186-1.019-19.135,6.785-22.491c5.548-2.432,12.032,0.095,14.462,5.654
				c0.702,1.576,1.007,3.301,0.914,5.029C354.895,129.801,355.093,134.534,351.107,138.713z"/>
			<path style="fill:#263238;" d="M343.061,124.266c0.058,0.647-0.317,1.188-0.752,1.196c-0.434,0.008-0.782-0.52-0.799-1.17
				c-0.018-0.651,0.328-1.189,0.751-1.197C342.685,123.088,343.043,123.604,343.061,124.266z"/>
			<path style="fill:#263238;" d="M335.67,124.415c0.058,0.647-0.328,1.189-0.752,1.196c-0.424,0.007-0.782-0.52-0.799-1.17
				c-0.017-0.651,0.328-1.189,0.752-1.197C335.294,123.237,335.655,123.795,335.67,124.415z"/>
			<path style="fill:#D58745;" d="M338.025,124.689c-0.738,2.015-1.751,3.919-3.011,5.657c0.922,0.632,2.077,0.823,3.154,0.523
				L338.025,124.689z"/>
			<path style="fill:#263238;" d="M345.306,121.826c-0.142,0.023-0.285-0.031-0.375-0.142c-0.586-0.781-1.507-1.239-2.483-1.236
				c-0.21,0.02-0.396-0.135-0.415-0.345c-0.019-0.21,0.135-0.396,0.345-0.415c0,0,0.001,0,0.002,0
				c1.234-0.035,2.409,0.531,3.151,1.518c0.135,0.161,0.114,0.402-0.047,0.538c-0.002,0.002-0.005,0.004-0.007,0.006
				C345.423,121.783,345.366,121.809,345.306,121.826z"/>
			<path style="fill:#263238;" d="M332.442,121.93c-0.071,0.03-0.15,0.037-0.226,0.021c-0.193-0.085-0.28-0.311-0.195-0.503
				c0.001-0.003,0.002-0.005,0.003-0.008c0.493-1.137,1.508-1.962,2.721-2.213c0.208-0.031,0.402,0.114,0.433,0.322l0,0.001
				c0.025,0.208-0.117,0.398-0.323,0.433l0,0c-0.952,0.226-1.741,0.889-2.127,1.787C332.661,121.863,332.556,121.921,332.442,121.93
				z"/>
			<path style="fill:#263238;" d="M349.109,111.877l-0.529,3.527c1.143,0.65,1.808,1.979,1.234,3.358
				c-1.224,2.945,0.337,7.608,2.571,9.512c0,0,0.106-1.288,1.186-0.952c1.08,0.336,0.595,7.042-1.616,10.187
				c0,0,3.838-3.441,5.844-10.44c1.856-6.474,1.665-11.27,0.395-13.829L349.109,111.877z"/>
			<path style="fill:#EBB376;" d="M358.843,128.287c-0.854,1.835-2.401,3.256-4.301,3.952c-2.522,0.904-3.975-1.31-3.44-3.793
				c0.496-2.203,2.392-5.4,5.007-5.208C358.725,123.431,359.863,126.022,358.843,128.287z"/>
			<g>
				<path style="fill:#263238;" d="M337.573,132.833c0.413,0.997,0.787,2.851,0.787,2.851c0.174-0.004,0.348-0.007,0.522-0.02
					c2.359-0.109,3.418-0.938,3.875-1.825c0.249-0.486,0.312-0.995,0.31-1.408c0.002-0.477-0.106-0.818-0.106-0.818
					c-1.216,0.805-3.408,1.075-4.584,1.171C337.885,132.828,337.573,132.833,337.573,132.833z"/>
				<path style="fill:#FFFFFF;" d="M338.377,132.783l0.254,0.834c2.222-0.108,3.771-0.482,4.436-1.187
					c0.002-0.477-0.106-0.818-0.106-0.818C341.745,132.417,339.554,132.688,338.377,132.783z"/>
				<path style="fill:#DE5753;" d="M338.882,135.663c2.359-0.109,3.418-0.938,3.875-1.825c-0.802,0.068-1.762,0.239-2.595,0.64
					C339.524,134.781,339.134,135.223,338.882,135.663z"/>
			</g>
			<path style="fill:#263238;" d="M348.58,115.403c0,0-8.435,3.685-13.683-0.535c-5.248-4.22,0-10.788,0-10.788
				s1.872,1.821,4.642,1.821c2.769,0,9.025-2.11,14.337,0.132c5.312,2.242,7.763,9.5,3.306,13.19L348.58,115.403z"/>
		</g>
		<path style="fill:#407BFF;" d="M354.685,152.574l-1.158,5.692c0,0,6.627,27.642,8.052,41.981l-2.415,2.419l-3.8-2.419
			c0,0-0.34-29.197-3.692-41.462l-6.009-4.92l4.729-1.531L354.685,152.574z"/>
		<g>
			<path style="fill:#407BFF;" d="M338.469,145.481l11.493,5.183l0.674-4.154l4.226,1.486c1.517,0.533,2.469,2.038,2.302,3.637
				l-0.477,4.559l-5.831-3.191l-2.905,4.11l-13.805-6.65L338.469,145.481z"/>
			<path style="opacity:0.7;fill:#FFFFFF;enable-background:new    ;" d="M338.469,145.481l11.493,5.183l0.674-4.154l4.226,1.486
				c1.517,0.533,2.469,2.038,2.302,3.637l-0.477,4.559l-5.831-3.191l-2.905,4.11l-13.805-6.65L338.469,145.481z"/>
		</g>
		<g>
			<path style="fill:#263238;" d="M334.458,149.747c0,0,10.845,8.826,23.094,36.94c0,0,0.445-27.476-1.861-38.252l13.365,0.649
				c0,0,9.784,21.608,4.869,68.29l3.393,23.341l-14.74,6.165l-3.397-10.854l-3.49,10.668l-28.417-3.802l1.505-29.473
				c0,0-6.821-48.709-7.724-60.453L334.458,149.747z"/>
			<path style="opacity:0.1;fill:#FFFFFF;enable-background:new    ;" d="M377.32,240.717l-14.74,6.16l-3.4-10.85l-3.49,10.66
				l-10.98-1.47l-17.44-2.33l0.75-14.64l0.76-14.83c0,0-1.22-8.77-2.71-19.76c-0.77-5.7-1.6-11.99-2.38-17.97
				c-1.24-9.68-2.31-18.54-2.63-22.72l12.47-3l0.93-0.22c0,0,10.84,8.83,23.09,36.94c0,0,0.45-27.48-1.86-38.25l13.37,0.65
				c0,0,9.78,21.6,4.87,68.29L377.32,240.717z"/>
			<path style="opacity:0.2;fill:#FFFFFF;enable-background:new    ;" d="M362.48,160.997l3.1,5.47c0,0-3.22,21.04-8.4,28.36v-4.35
				l-20.06-23.13l3.6-5.56l-9.03,1.78c0,0-0.84-8.45,1.84-13.6l0.93-0.22c0,0,10.84,8.83,23.09,36.94c0,0,0.45-27.48-1.86-38.25
				c0,0,6.39,3.46,10.94,12.56H362.48z"/>
		</g>
		<path style="opacity:0.2;enable-background:new    ;" d="M326.07,193.657c-0.77-5.7-1.6-11.99-2.38-17.97l3.19-1.63
			C326.88,174.057,329.74,185.027,326.07,193.657z"/>
		<path style="opacity:0.2;enable-background:new    ;" d="M344.71,245.217l-17.44-2.33l0.75-14.64
			C333.35,230.837,342.02,236.277,344.71,245.217z"/>
		<g>
			<path style="fill:#263238;" d="M321.06,152.967c0,0-21.346,31.891-19.236,49.698c2.11,17.807,28.01,46.798,28.01,46.798
				l8.251-5.13c0,0-20.7-31.773-22.546-41.668c-0.994-5.33,11.341-28.611,11.341-28.611S326.054,157.989,321.06,152.967z"/>
			<path style="opacity:0.1;fill:#FFFFFF;enable-background:new    ;" d="M321.06,152.967c0,0-21.346,31.891-19.236,49.698
				c2.11,17.807,28.01,46.798,28.01,46.798l8.251-5.13c0,0-20.7-31.773-22.546-41.668c-0.994-5.33,11.341-28.611,11.341-28.611
				S326.054,157.989,321.06,152.967z"/>
		</g>
		<g>
			<g>
				<polygon style="fill:#407BFF;" points="388.055,175.162 389.978,148.94 407.05,150.12 409.066,141.725 413.203,143.446 
					404.56,174.057 				"/>
				<polygon style="opacity:0.7;fill:#FFFFFF;enable-background:new    ;" points="388.055,175.162 389.978,148.94 407.05,150.12 
					409.066,141.725 413.203,143.446 404.56,174.057 				"/>
			</g>
			<polygon style="fill:#407BFF;" points="384.571,178.941 390.901,151.776 408.044,151.776 414.11,141.981 409.099,171.045 
				403.033,177.403 			"/>
			<polygon style="opacity:0.2;enable-background:new    ;" points="408.044,151.776 403.033,177.403 409.099,171.045 
				414.11,141.981 			"/>
		</g>
		<path style="fill:#EBB376;" d="M410.743,161.51c0,0-2.897,0.963-3.292,2.677c-0.396,1.714-1.055,12.264-1.055,12.264
			s4.483-1.055,5.143-3.428C412.198,170.648,410.743,161.51,410.743,161.51z"/>
	</g>
</g>
</svg>
